<?xml version="1.0" standalone="no"?>
<!DOCTYPE svg PUBLIC "-//W3C//DTD SVG 20010904//EN"
 "http://www.w3.org/TR/2001/REC-SVG-20010904/DTD/svg10.dtd">
<svg version="1.0" xmlns="http://www.w3.org/2000/svg"
 width="1024.000000pt" height="1536.000000pt" viewBox="0 0 1024.000000 1536.000000"
 preserveAspectRatio="xMidYMid meet">

<g transform="translate(0.000000,1536.000000) scale(0.100000,-0.100000)"
fill="#000000" stroke="none">
<path d="M2462 9711 c-105 -31 -186 -78 -261 -154 -176 -177 -224 -426 -126
-652 l35 -80 -224 -335 c-123 -184 -290 -436 -371 -560 -82 -124 -239 -362
-350 -530 -110 -168 -207 -319 -214 -337 -7 -18 -13 -59 -13 -91 0 -103 57
-198 147 -244 49 -26 151 -35 207 -19 83 24 115 56 250 256 153 226 108 158
406 610 135 204 325 492 424 640 l179 270 132 0 c103 0 144 4 187 19 106 36
174 78 246 150 162 162 215 395 140 615 -28 83 -46 108 -69 95 -8 -5 -70 -78
-138 -163 -68 -85 -133 -165 -144 -179 l-20 -24 -157 15 c-86 8 -161 18 -167
22 -11 6 -112 211 -126 254 -5 15 22 72 105 221 61 110 108 204 105 210 -10
16 -114 10 -183 -9z m-1157 -2600 c74 -42 100 -151 52 -221 -69 -103 -223 -97
-277 11 -25 49 -25 92 0 145 42 86 140 114 225 65z"/>
<path d="M1635 9494 c-92 -10 -195 -38 -275 -76 -69 -33 -101 -57 -171 -127
-142 -142 -197 -285 -186 -486 15 -273 150 -452 450 -596 79 -38 105 -46 113
-36 17 17 224 324 230 340 3 9 -19 23 -68 42 -145 56 -203 97 -240 169 -29 56
-29 146 0 202 50 97 131 128 316 122 l121 -4 0 101 c0 112 14 180 56 272 15
35 25 65 21 67 -10 6 -321 14 -367 10z"/>
<path d="M4163 9125 c-105 -29 -174 -80 -216 -159 -31 -59 -31 -193 0 -252 44
-82 109 -123 298 -183 168 -55 205 -82 205 -151 0 -76 -55 -110 -177 -110 -87
1 -153 22 -243 80 -28 18 -52 31 -54 29 -1 -2 -24 -37 -49 -77 l-47 -72 43
-31 c56 -42 135 -76 216 -95 95 -23 256 -15 336 16 168 64 243 251 164 408
-42 85 -104 125 -289 186 -166 54 -197 73 -206 122 -8 45 7 79 48 105 28 17
46 20 124 17 80 -3 99 -8 160 -38 38 -19 72 -36 76 -38 7 -3 88 130 88 146 0
12 -87 58 -157 83 -77 28 -247 35 -320 14z"/>
<path d="M5680 9124 c-270 -58 -437 -303 -400 -585 28 -215 176 -380 392 -435
47 -12 89 -15 163 -11 144 7 259 53 363 142 l42 37 -2 196 -3 197 -215 0 -215
0 -3 -87 -3 -88 116 0 115 0 0 -60 c0 -33 1 -63 3 -67 4 -14 -101 -63 -157
-74 -39 -7 -74 -7 -118 1 -114 21 -182 71 -230 168 -29 58 -33 76 -33 147 0
147 60 250 180 306 107 51 263 36 369 -36 l35 -24 55 77 c64 91 64 93 -49 147
-130 63 -266 79 -405 49z"/>
<path d="M4870 8616 c0 -450 2 -505 16 -510 20 -8 142 -8 172 0 l22 6 0 504 0
504 -105 0 -105 0 0 -504z"/>
<path d="M6470 8610 l0 -510 348 2 347 3 3 93 3 92 -246 0 -245 0 0 115 0 115
210 0 210 0 0 95 0 95 -210 0 -210 0 0 115 0 115 240 0 240 0 0 90 0 90 -345
0 -345 0 0 -510z"/>
<path d="M7380 8610 l0 -511 103 3 102 3 3 166 c3 191 -5 179 108 171 67 -5
47 19 192 -220 l75 -124 119 4 c65 1 118 4 118 5 0 2 -52 83 -115 182 -63 99
-115 182 -115 185 0 3 17 14 38 25 50 26 107 87 128 136 26 63 30 200 8 271
-25 79 -96 152 -179 185 -57 22 -74 24 -322 27 l-263 3 0 -511z m496 310 c51
-25 74 -68 74 -137 0 -61 -26 -112 -70 -138 -29 -17 -57 -21 -162 -24 l-128
-3 0 161 0 161 122 0 c102 0 128 -3 164 -20z"/>
<path d="M8380 8610 l0 -510 233 4 c176 2 247 7 292 20 244 67 375 241 375
496 0 253 -144 434 -385 485 -49 10 -135 15 -292 15 l-223 0 0 -510z m483 307
c105 -33 166 -101 194 -213 14 -55 14 -78 5 -140 -30 -191 -145 -274 -379
-274 l-93 0 0 326 0 327 113 -6 c61 -3 134 -12 160 -20z"/>
<path d="M2531 8232 c-22 -31 -84 -124 -139 -207 l-101 -149 52 -22 c78 -32
198 -94 233 -120 17 -13 44 -48 60 -76 26 -48 29 -62 29 -143 0 -69 -5 -99
-19 -129 -42 -84 -130 -140 -271 -171 -67 -15 -112 -17 -301 -13 l-222 5 -146
-220 c-91 -138 -142 -223 -135 -227 28 -18 305 -35 559 -35 256 0 282 2 370
24 306 76 539 258 629 491 106 274 38 586 -178 813 -78 82 -172 144 -325 211
l-56 25 -39 -57z"/>
<path d="M6230 7688 c0 -78 -6 -91 -30 -63 -15 18 -78 20 -113 4 -73 -33 -83
-167 -16 -223 35 -30 93 -35 125 -11 25 19 34 19 34 0 0 -8 9 -15 20 -15 19 0
20 7 20 194 0 189 -1 195 -20 193 -18 -1 -20 -8 -20 -79z m-41 -88 c43 -23 52
-120 15 -161 -20 -23 -86 -26 -103 -5 -7 8 -16 29 -21 47 -23 80 45 154 109
119z"/>
<path d="M8177 7759 c-9 -5 -25 -23 -37 -39 -30 -43 -1 -41 47 3 27 25 32 35
21 39 -8 3 -22 2 -31 -3z"/>
<path d="M8970 7690 l0 -77 -40 19 c-37 19 -44 19 -78 6 -94 -35 -112 -185
-30 -242 32 -23 90 -20 122 5 l26 20 0 -21 c0 -16 5 -21 23 -18 22 3 22 4 22
193 l0 190 -22 1 c-22 1 -23 -2 -23 -76z m-25 -105 c37 -36 32 -130 -9 -157
-23 -16 -75 -8 -96 14 -30 33 -28 111 5 143 13 14 36 25 50 25 14 0 37 -11 50
-25z"/>
<path d="M4033 7754 c-12 -3 -33 -16 -47 -29 -21 -19 -26 -34 -26 -69 0 -55
28 -82 118 -115 35 -12 67 -31 72 -42 33 -61 -50 -98 -145 -64 -34 12 -42 12
-54 1 -40 -40 140 -76 205 -41 76 41 69 143 -13 178 -21 9 -59 25 -85 36 -42
17 -48 24 -48 50 0 21 7 34 21 42 22 11 112 8 140 -5 12 -5 18 -1 22 14 4 16
-1 23 -21 31 -32 12 -108 19 -139 13z"/>
<path d="M4275 7741 c-9 -28 1 -41 31 -41 22 0 25 4 22 28 -4 34 -43 44 -53
13z"/>
<path d="M6883 7749 c-18 -5 -48 -25 -67 -44 -81 -81 -71 -222 19 -291 51 -39
152 -46 211 -16 l39 20 -3 81 -4 81 -64 0 c-57 0 -64 -2 -64 -20 0 -17 7 -20
45 -20 l45 0 0 -49 c0 -28 -5 -53 -10 -56 -6 -4 -34 -9 -63 -11 -91 -9 -149
46 -150 139 -1 63 22 111 63 132 37 19 113 19 150 0 27 -14 30 -14 40 5 9 16
6 22 -21 35 -39 21 -123 28 -166 14z"/>
<path d="M7894 7746 c-10 -26 4 -46 31 -46 23 0 26 4 23 28 -3 31 -44 45 -54
18z"/>
<path d="M4685 7708 c-2 -7 -5 -24 -7 -38 -2 -17 -10 -26 -25 -28 -29 -4 -32
-42 -4 -42 17 0 19 -9 23 -91 3 -81 6 -93 27 -110 22 -18 90 -27 104 -13 13
13 -7 34 -32 34 -43 0 -51 17 -51 102 l0 78 40 0 c33 0 40 3 40 20 0 17 -7 20
-40 20 l-40 0 0 40 c0 29 -4 40 -15 40 -9 0 -18 -6 -20 -12z"/>
<path d="M7723 7713 c-7 -2 -13 -20 -13 -39 0 -30 -3 -34 -25 -34 -18 0 -25
-5 -25 -20 0 -15 7 -20 25 -20 25 0 25 -1 25 -88 0 -80 2 -91 23 -110 32 -30
107 -32 107 -2 0 15 -7 20 -28 20 -44 0 -52 16 -52 102 l0 78 35 0 c28 0 35 4
35 20 0 16 -7 20 -35 20 -34 0 -35 1 -35 40 0 39 -7 46 -37 33z"/>
<path d="M4925 7634 c-67 -23 -96 -86 -76 -162 15 -55 50 -84 109 -90 58 -5
115 18 105 44 -3 9 -11 13 -22 8 -28 -12 -70 -16 -96 -10 -20 5 -55 49 -55 71
0 3 43 5 95 5 106 0 110 4 82 73 -26 60 -79 83 -142 61z m85 -44 c11 -11 20
-29 20 -40 0 -18 -7 -20 -71 -20 -68 0 -70 1 -63 23 17 57 75 76 114 37z"/>
<path d="M5255 7643 c-11 -3 -30 -14 -42 -26 l-23 -20 0 22 c0 18 -5 22 -22
19 -22 -3 -23 -7 -26 -130 l-3 -128 26 0 c25 0 25 0 25 90 0 83 2 93 25 115
13 14 35 25 49 25 43 0 56 -33 56 -138 0 -91 1 -93 23 -90 21 3 22 8 25 95 3
86 5 94 29 113 55 43 98 16 99 -62 3 -149 3 -148 24 -148 19 0 20 7 20 106 0
58 -4 114 -10 124 -22 42 -107 44 -151 4 -17 -16 -20 -15 -36 4 -19 21 -56 32
-88 25z"/>
<path d="M5667 7635 c-47 -16 -54 -22 -40 -36 7 -7 24 -6 56 2 40 10 51 9 73
-5 17 -12 24 -25 22 -39 -3 -19 -11 -23 -66 -28 -77 -7 -102 -27 -102 -80 0
-47 27 -69 86 -69 29 0 46 6 60 21 l18 20 8 -20 c4 -12 16 -21 28 -21 19 0 20
6 20 89 0 112 -12 149 -56 167 -41 17 -58 17 -107 -1z m113 -153 c0 -55 -72
-90 -109 -53 -27 27 -14 58 27 67 15 3 32 7 37 9 32 11 45 4 45 -23z"/>
<path d="M7490 7637 c-19 -7 -41 -24 -50 -39 -24 -44 1 -78 75 -103 52 -18 60
-24 60 -45 0 -22 -5 -25 -38 -28 -22 -2 -52 1 -68 7 -16 5 -29 8 -29 6 0 -2
-3 -10 -6 -18 -7 -19 43 -37 103 -37 72 0 117 64 80 114 -7 10 -37 25 -67 35
-61 20 -81 41 -61 65 15 18 57 21 94 7 19 -8 27 -6 31 5 10 27 -74 48 -124 31z"/>
<path d="M8116 7639 c-109 -18 -140 -174 -47 -236 106 -71 235 21 201 145 -18
70 -78 105 -154 91z m77 -49 c32 -26 44 -79 27 -121 -15 -34 -37 -49 -75 -49
-40 0 -62 16 -75 55 -15 46 -5 90 27 115 33 26 63 25 96 0z"/>
<path d="M8450 7639 c-13 -6 -33 -17 -42 -26 -17 -15 -18 -15 -18 5 0 17 -6
22 -25 22 l-26 0 3 -127 c3 -124 4 -128 26 -131 21 -3 22 -1 22 85 0 100 12
127 59 138 17 3 39 1 50 -4 18 -10 21 -23 23 -114 3 -97 4 -102 26 -105 22 -3
22 -2 22 103 0 58 -4 115 -10 125 -5 10 -24 23 -41 29 -37 13 -36 13 -69 0z"/>
<path d="M4280 7509 c0 -130 0 -130 23 -127 21 3 22 7 25 131 l3 127 -26 0
-25 0 0 -131z"/>
<path d="M4420 7620 c-25 -25 -26 -72 -2 -93 10 -10 39 -24 65 -33 57 -19 75
-38 57 -59 -14 -17 -82 -20 -110 -5 -13 7 -21 6 -29 -4 -18 -21 13 -39 77 -44
73 -5 112 21 112 73 0 39 -20 57 -91 80 -52 18 -66 37 -43 60 18 17 51 19 88
6 17 -7 27 -6 35 3 30 36 -124 51 -159 16z"/>
<path d="M6394 7621 c-50 -31 -69 -113 -39 -171 24 -46 62 -70 112 -70 57 0
109 25 93 45 -9 11 -17 12 -30 5 -35 -19 -95 -12 -118 13 -12 13 -22 31 -22
40 0 15 12 17 90 17 l90 0 0 30 c0 38 -24 86 -49 100 -31 16 -93 12 -127 -9z
m102 -19 c13 -8 34 -46 34 -61 0 -7 -27 -11 -70 -11 -59 0 -70 3 -70 17 0 42
71 79 106 55z"/>
<path d="M7189 7612 c-26 -23 -33 -38 -37 -80 -6 -65 10 -106 53 -132 52 -32
165 -21 165 16 0 18 -19 27 -33 16 -13 -11 -38 -15 -73 -13 -28 1 -60 29 -69
59 -6 22 -5 22 89 22 94 0 96 0 96 24 0 39 -20 84 -45 100 -14 9 -45 16 -69
16 -36 0 -52 -6 -77 -28z m123 -19 c9 -10 19 -28 23 -41 7 -23 6 -23 -67 -20
-67 3 -73 5 -70 23 4 28 39 55 72 55 15 0 34 -8 42 -17z"/>
<path d="M7900 7510 c0 -123 1 -130 20 -130 16 0 20 7 20 33 0 17 3 76 7 130
l6 97 -26 0 -27 0 0 -130z"/>
<path d="M9124 7606 c-34 -34 -40 -55 -35 -121 5 -69 63 -110 143 -103 54 6
90 30 71 49 -8 8 -16 8 -31 0 -52 -28 -122 -4 -137 47 -6 22 -5 22 89 22 l96
0 0 26 c0 30 -14 60 -43 92 -16 17 -31 22 -70 22 -42 0 -54 -5 -83 -34z m126
-16 c11 -11 20 -29 20 -40 0 -18 -7 -20 -70 -20 -79 0 -89 12 -45 55 29 30 68
32 95 5z"/>
<path d="M6500 7069 l0 -80 -26 20 c-32 25 -74 27 -114 6 -92 -48 -77 -217 22
-247 36 -11 45 -10 79 9 30 17 39 18 39 7 0 -8 10 -14 25 -14 l25 0 0 190 0
190 -25 0 c-25 0 -25 -1 -25 -81z m-23 -101 c33 -31 33 -109 -2 -143 -13 -14
-36 -25 -50 -25 -14 0 -37 11 -50 25 -33 32 -36 114 -5 145 27 27 77 26 107
-2z"/>
<path d="M7537 7122 c-30 -31 -35 -52 -13 -52 12 0 76 63 76 75 0 16 -40 1
-63 -23z"/>
<path d="M3970 6956 l0 -186 25 0 c24 0 25 2 25 70 l0 70 48 0 47 0 40 -70
c37 -64 43 -70 73 -70 l33 0 -41 60 c-56 82 -57 86 -22 104 40 21 57 70 42
125 -15 58 -50 74 -172 79 l-98 4 0 -186z m198 118 c15 -10 22 -25 22 -48 0
-49 -26 -67 -102 -69 l-63 -2 -3 68 -3 67 63 0 c41 0 71 -5 86 -16z"/>
<path d="M7057 7133 c-4 -3 -7 -87 -7 -185 l0 -178 93 0 c79 0 101 4 138 23
53 28 78 68 86 136 11 98 -40 175 -132 200 -44 12 -168 15 -178 4z m190 -63
c66 -40 87 -110 55 -182 -24 -55 -67 -78 -146 -78 l-56 0 0 133 c0 74 3 137 7
140 15 15 109 7 140 -13z"/>
<path d="M7783 7114 c-29 -29 -25 -41 8 -24 17 10 30 9 60 0 44 -15 66 -9 78
22 11 30 6 34 -23 19 -17 -10 -33 -10 -60 -2 -34 9 -40 8 -63 -15z"/>
<path d="M5470 7060 c0 -36 -2 -40 -25 -40 -16 0 -25 -6 -25 -15 0 -9 9 -15
25 -15 25 0 25 0 25 -93 0 -77 3 -97 18 -109 37 -32 116 -32 110 1 -2 10 -12
15 -26 13 -42 -6 -52 14 -52 104 l0 84 35 0 c24 0 35 5 35 15 0 10 -11 15 -35
15 -34 0 -35 1 -35 40 0 36 -2 40 -25 40 -22 0 -25 -4 -25 -40z"/>
<path d="M4368 7014 c-38 -20 -58 -63 -58 -123 0 -62 33 -106 91 -121 65 -18
146 14 125 49 -4 6 -17 4 -34 -5 -15 -7 -40 -14 -55 -14 -33 0 -77 40 -77 70
0 19 6 20 91 20 l92 0 -6 43 c-11 81 -95 122 -169 81z m107 -39 c44 -43 34
-55 -45 -55 -56 0 -70 3 -70 15 0 23 46 65 70 65 12 0 32 -11 45 -25z"/>
<path d="M4683 7010 c-27 -16 -33 -17 -33 -5 0 8 -9 15 -20 15 -19 0 -20 -7
-20 -175 0 -164 1 -175 19 -175 14 0 20 10 24 43 3 24 4 53 0 65 -6 26 4 28
27 7 29 -26 81 -29 118 -5 71 44 80 154 17 217 -39 39 -83 44 -132 13z m102
-45 c29 -28 33 -80 10 -124 -22 -43 -71 -55 -112 -26 -43 30 -37 150 9 168 32
13 70 6 93 -18z"/>
<path d="M4970 7008 c-69 -47 -78 -154 -19 -209 54 -51 139 -47 189 6 18 19
25 40 28 84 4 56 2 61 -30 96 -29 31 -42 38 -84 42 -40 4 -55 0 -84 -19z m130
-42 c44 -48 23 -147 -35 -162 -58 -14 -105 31 -105 102 0 74 90 113 140 60z"/>
<path d="M5315 7005 c-23 -22 -25 -23 -25 -5 0 15 -7 20 -25 20 l-25 0 0 -125
0 -125 25 0 c25 0 25 1 25 85 0 95 14 120 70 132 21 4 30 11 30 24 0 28 -46
24 -75 -6z"/>
<path d="M5698 7014 c-38 -20 -58 -63 -58 -125 0 -44 4 -55 33 -84 41 -41 93
-53 145 -33 20 7 37 20 37 28 0 15 -4 15 -76 4 -28 -5 -41 -1 -62 17 -14 13
-27 33 -29 44 -3 19 3 20 91 23 l93 3 -5 35 c-15 89 -93 130 -169 88z m94 -28
c10 -7 22 -25 27 -39 l11 -27 -75 0 c-47 0 -75 4 -75 11 0 18 57 69 77 69 10
0 26 -6 35 -14z"/>
<path d="M5960 7017 c-66 -34 -42 -108 45 -137 27 -9 53 -23 59 -32 23 -38
-45 -62 -108 -39 -18 7 -27 6 -35 -3 -16 -19 41 -41 103 -40 41 0 53 5 73 29
18 21 23 34 18 54 -10 38 -19 46 -85 70 -45 17 -60 27 -60 41 0 24 36 35 90
26 32 -5 40 -3 40 9 0 32 -92 46 -140 22z"/>
<path d="M6681 7017 c-97 -49 -87 -211 16 -246 33 -12 49 -12 80 -3 55 17 70
29 57 42 -9 9 -22 8 -52 -1 -32 -9 -47 -9 -70 0 -26 11 -52 46 -52 71 0 6 41
10 95 10 89 0 95 1 95 20 0 87 -93 146 -169 107z m93 -38 c14 -11 26 -29 26
-40 0 -17 -8 -19 -70 -19 -38 0 -70 3 -70 6 0 12 24 50 39 61 23 18 45 16 75
-8z"/>
<path d="M7467 7014 c-31 -17 -31 -41 -1 -36 82 15 102 14 118 -9 25 -37 20
-49 -21 -49 -97 0 -151 -40 -138 -101 12 -53 110 -76 146 -33 15 18 29 18 29
-1 0 -8 9 -15 20 -15 19 0 20 7 20 105 0 102 -1 107 -26 130 -32 30 -102 34
-147 9z m133 -143 c0 -10 -9 -30 -21 -45 -35 -45 -117 -29 -107 21 4 24 45 43
91 43 29 0 37 -4 37 -19z"/>
<path d="M7730 6899 c0 -122 1 -129 20 -129 18 0 20 7 20 85 0 78 2 88 25 110
29 30 75 33 98 7 13 -15 17 -39 17 -110 0 -91 0 -92 25 -92 l24 0 -2 106 c-2
102 -3 107 -30 130 -35 30 -85 31 -120 4 -30 -24 -37 -25 -37 -6 0 7 -9 16
-20 19 -19 5 -20 0 -20 -124z"/>
<path d="M8083 7010 c-78 -47 -84 -174 -10 -223 88 -57 208 -1 211 100 2 113
-107 181 -201 123z m124 -42 c69 -74 3 -195 -86 -158 -33 13 -51 47 -51 96 0
73 90 113 137 62z"/>
<path d="M8390 7023 c-50 -19 -66 -77 -31 -112 11 -11 39 -25 63 -31 72 -20
90 -50 42 -72 -19 -9 -36 -9 -71 1 -37 9 -48 9 -54 -1 -12 -20 38 -42 97 -42
67 -1 94 21 94 75 0 44 -18 60 -87 79 -49 12 -71 41 -48 60 10 9 34 11 71 7
48 -5 55 -3 52 11 -5 24 -86 40 -128 25z"/>
</g>
</svg>
